<svg width="1280" height="720" viewBox="0 0 1280 720" fill="none" xmlns="http://www.w3.org/2000/svg">
<g clip-path="url(#clip0_3192_3874)">
<rect width="1280" height="720" fill="#B69F9F"/>
<g clip-path="url(#clip1_3192_3874)">
<path d="M765.481 414.317C764.786 418.282 762.874 421.595 761.107 424.961C754.569 437.408 746.048 448.154 734.021 455.866C722.479 463.267 709.703 466.676 696.114 467.387C676.935 468.388 658.951 463.855 641.645 455.887C619.832 445.837 600.238 432.41 581.58 417.512C575.349 412.535 569.085 407.638 561.63 404.492C545.806 397.818 525.065 404.615 519.873 424.137C519.738 424.64 519.506 425.116 519.21 425.881C516.846 423.623 516.043 420.739 514.831 418.175C509.311 406.488 505.32 394.292 503.58 381.47C501.706 367.626 503.359 354.386 511.654 342.624C518.763 332.547 528.738 327.147 540.91 325.536C554.753 323.706 566.925 328.127 578.268 335.49C589.347 342.683 598.035 352.476 607.148 361.825C617.764 372.709 628.358 383.626 639.588 393.901C647.78 401.393 656.317 408.452 665.656 414.515C678.432 422.81 692.134 428.841 707.317 431.088C728.323 434.198 747.211 429.494 763.569 415.708C764.167 415.2 764.84 414.777 765.475 414.312L765.481 414.317Z" fill="white"/>
<path d="M775.941 341.731C772.063 338.734 768.454 336.277 764.329 334.688C755.97 331.472 747.524 331.097 739.074 334.201C736.957 334.977 736.402 334.394 735.777 332.392C727.1 304.458 709.725 283.667 683.355 270.637C666.314 262.219 648.136 259.329 629.193 261.266C604.784 263.76 584.274 274.217 567.232 291.513C561.06 297.774 555.916 304.886 551.791 312.661C550.907 314.32 549.83 314.914 547.983 314.898C531.485 314.727 517.46 320.378 506.273 332.601C505.875 333.034 505.546 333.666 504.771 333.553C511.972 284.336 560.581 224.154 637.218 222.912C718.838 221.591 770.943 286.643 775.941 341.731Z" fill="white"/>
<path d="M691.332 367.823C691.332 364.917 691.284 362.622 691.338 360.337C691.844 338.599 677.63 319.371 657.912 311.879C635.873 303.51 610.138 311.574 596.985 331.048C596.635 331.567 596.242 332.065 595.951 332.616C595.025 334.382 594.136 334.537 592.472 333.162C584.129 326.253 574.989 320.661 564.486 317.6C561.847 316.829 561.772 315.861 563.091 313.742C572.312 298.977 584.608 287.519 600.389 280.006C626.576 267.537 653.075 267.489 679.058 280.076C703.236 291.785 718.774 311.151 726.277 336.865C727.058 339.546 726.277 340.975 724.096 342.639C715.979 348.81 708.099 355.285 700.074 361.573C697.408 363.66 694.564 365.522 691.327 367.829L691.332 367.823Z" fill="white"/>
<path d="M712.874 476.303C710.203 477.85 707.58 479.503 704.844 480.932C688.707 489.366 671.633 494.616 653.429 496.403C627.021 498.999 601.944 494.45 578.245 482.8C562.34 474.987 548.223 464.61 536.794 451.002C531.29 444.441 528.155 436.89 529.728 428.001C531.564 417.603 542.105 410.47 552.564 412.568C560.821 414.221 567.128 419.257 573.403 424.303C596.019 442.498 619.841 458.772 647.111 469.4C660.043 474.441 673.438 477.609 687.468 477.588C695.881 477.572 704.305 477.818 712.54 475.442C712.653 475.731 712.761 476.014 712.874 476.303Z" fill="white"/>
<path d="M650.226 388.48C656.216 389.411 661.973 389.288 667.785 388.453C677.14 387.115 685.44 383.257 693.428 378.553C705.056 371.703 715.166 362.852 725.582 354.397C730.101 350.726 734.83 347.365 740.135 344.855C754.354 338.144 771.606 345.995 775.834 361.075C778.381 370.151 776.97 378.837 772.904 387.046C763.538 405.952 748.597 417.886 727.387 421.113C713.997 423.152 701.135 420.353 688.796 415.184C674.835 409.335 662.808 400.51 651.508 390.631C650.991 390.182 650.334 389.791 650.221 388.469L650.226 388.48Z" fill="white"/>
<path d="M660.55 378.612C645.717 378.719 634.676 373.828 625.417 365.143C618.119 358.298 611.365 350.881 604.304 343.785C602.968 342.442 602.99 341.259 603.873 339.761C610.218 328.999 619.536 322.277 631.8 319.778C650.85 315.888 669.992 326.2 677.602 344.052C681.556 353.337 681.874 362.681 679.137 372.271C678.631 374.047 677.662 375.107 675.852 375.765C670.299 377.788 664.595 378.703 660.556 378.617L660.55 378.612Z" fill="white"/>
</g>
</g>
<defs>
<clipPath id="clip0_3192_3874">
<rect width="1280" height="720" fill="white"/>
</clipPath>
<clipPath id="clip1_3192_3874">
<rect width="274.219" height="274.219" fill="white" transform="translate(502.891 222.891)"/>
</clipPath>
</defs>
</svg>
